<?xml version="1.0"?>
<svg width="846" height="594" xmlns="http://www.w3.org/2000/svg" xmlns:svg="http://www.w3.org/2000/svg">
 <mask height="543" id="pif" maskUnits="userSpaceOnUse" width="654" x="96" y="-42">
  <path clip-rule="evenodd" d="m750,344.9l-574,-386.9l90.42,175.87l-170.42,-114.87l247.82,482l326.18,-95.1l-39.02,-26.3l119.02,-34.7z" fill="#fff" fill-rule="evenodd" filter="url(#pie)" id="svg_1"/>
 </mask>
 <defs>
  <filter id="pie">
   <feGaussianBlur stdDeviation="96"/>
  </filter>
  <filter color-interpolation-filters="sRGB" filterUnits="userSpaceOnUse" height="666.84" id="pia" width="758.84" x="3.58" y="-73.42">
   <feFlood flood-opacity="0" result="BackgroundImageFix"/>
   <feBlend in="SourceGraphic" in2="BackgroundImageFix"/>
   <feGaussianBlur result="effect1_foregroundBlur_4012_3" stdDeviation="46.21"/>
  </filter>
  <filter color-interpolation-filters="sRGB" filterUnits="userSpaceOnUse" height="666.84" id="pic" width="758.84" x="83.58" y="-134.42">
   <feFlood flood-opacity="0" result="BackgroundImageFix"/>
   <feBlend in="SourceGraphic" in2="BackgroundImageFix"/>
   <feGaussianBlur result="effect1_foregroundBlur_4012_3" stdDeviation="46.21"/>
  </filter>
 </defs>
 <g class="layer">
  <title>Layer 1</title>
  <g filter="url(#pia)" id="svg_2" transform="matrix(1 0 0 1 0 0) translate(96 501) matrix(0.752613 0 0 0.813278 -72.2509 -407.452)">
   <path clip-rule="evenodd" d="m96,19l574,386.9l-326.18,95.1l-247.82,-482z" fill="#e4c5ea" fill-rule="evenodd" id="svg_3"/>
  </g>
  <g filter="url(#pic)" id="svg_4" transform="translate(3 -31) rotate(-8.89148 412.536 173.964) matrix(1.00161 0 0 0.987752 -51.2091 -22.5987)">
   <path clip-rule="evenodd" d="m176,-42l574,386.9l-326.18,95.1l-247.82,-482z" fill="#c79ad1" fill-rule="evenodd" id="svg_5"/>
  </g>
  <g id="svg_6" mask="url(#pif)" opacity="0.5" transform="rotate(-6.35922 387.185 43.45) translate(5 -28) matrix(1 0 0 1 -1 51)">
   <path clip-rule="evenodd" d="m575.65,131.95c-127.7,107.49 -298.92,166.57 -482.49,166.57c-1.24,0 -2.49,-0.01 -3.73,-0.01c-80.45,-0.35 -158.46,-12.03 -231.43,-34.09l0,6.16c73.03,21.88 151.01,33.49 231.4,33.84l1.08,0l0.35,0l0.59,0l1.74,0c185.06,0 357.76,-59.61 486.58,-168.04c143.52,-120.79 221.2,-292.98 225.48,-498.38l-6.19,0c-4.27,203.66 -81.23,374.31 -223.38,493.95zm-482.66,-168.27c-1.17,0 -2.37,0 -3.54,-0.01c-87.42,-0.75 -169,-28.05 -231.45,-77.11l0,7.57c63.01,48.01 144.37,74.7 231.39,75.45c1.26,0.01 2.51,0.01 3.77,0.01c93.34,0 180.48,-29.94 245.74,-84.53c71.69,-59.96 111.42,-145.2 115.6,-247.06l-6.22,0c-9.17,224.05 -188.28,325.68 -355.29,325.68zm0,19.7c-1.17,0 -2.36,-0.01 -3.53,-0.01c-86.33,-0.71 -167.3,-25.88 -231.46,-71.41l0,7.3c64.62,44.65 145.4,69.32 231.41,70.01c1.25,0.01 2.49,0.02 3.75,0.02c98.74,0 190.92,-31.7 259.92,-89.46c75.9,-63.53 117.87,-153.89 122.05,-261.83l-6.21,0c-9.2,237.57 -199,345.38 -375.93,345.38zm-3.52,19.68c1.17,0.01 2.35,0.01 3.52,0.01c186.86,0 387.34,-113.97 396.56,-365.07l6.21,0c-4.19,114.03 -48.38,209.5 -128.5,276.61c-72.74,60.93 -169.97,94.37 -274.1,94.37c-1.25,0 -2.49,0 -3.74,-0.01c-85.16,-0.65 -165.51,-23.57 -231.42,-65.33l0,-7.2c65.55,42.54 146.01,65.97 231.47,66.62zm3.52,19.71c-1.17,0 -2.35,-0.01 -3.51,-0.02c-84.74,-0.61 -164.79,-22.54 -231.48,-62.5l0,6.98c66.99,39.29 146.93,60.82 231.43,61.43c1.25,0.01 2.48,0.02 3.73,0.02c109.54,0 211.79,-35.19 288.27,-99.29c84.34,-70.69 130.76,-171.27 134.97,-291.39l-6.22,0c-9.23,264.63 -220.4,384.77 -417.19,384.77zm-3.5,19.68c1.15,0.01 2.35,0.01 3.51,0.01c206.71,0 428.56,-126.3 437.81,-404.46l6.22,0c-4.22,126.21 -52.86,231.9 -141.42,306.17c-80.23,67.27 -187.51,104.2 -302.45,104.2c-1.25,0 -2.47,0 -3.72,-0.01c-83.92,-0.58 -163.55,-20.85 -231.44,-57.97l0,-6.78c67.63,37.69 147.37,58.26 231.49,58.84zm316.2,-87.94c-83.68,70.2 -196.12,108.34 -316.2,107.64c-83.59,-0.55 -163.05,-19.96 -231.49,-55.65l0,6.79c68.64,35.16 148.05,54.22 231.44,54.77c1.25,0.01 2.47,0.01 3.72,0.01c120.33,0 232.65,-38.68 316.62,-109.12c92.78,-77.85 143.66,-188.65 147.88,-320.95l-6.19,0c-4.21,130.54 -54.36,239.81 -145.78,316.51zm-316.2,127.33c125.48,0.7 242.95,-39.18 330.37,-112.55c95.64,-80.28 148.02,-194.66 152.24,-331.29l6.19,0c-4.23,138.38 -57.33,254.3 -154.35,335.73c-87.69,73.61 -205.06,114.04 -330.79,114.04c-1.24,0 -2.46,-0.01 -3.7,-0.01c-82.98,-0.53 -162.14,-18.7 -231.45,-52.14l0,-6.62c69.12,33.9 148.35,52.32 231.49,52.85l0,-0.01zm344.54,-97.77c-91.16,76.55 -213.59,118.26 -344.54,117.47c-82.73,-0.5 -161.77,-17.96 -231.49,-50.24l0,6.62c69.87,31.87 148.87,49.03 231.45,49.54l0.07,0c1.22,0 2.42,0.01 3.63,0.01c131.14,0 253.52,-42.18 344.96,-118.95c101.24,-85.01 156.58,-206.04 160.81,-350.52l-6.19,0c-4.22,142.72 -58.84,262.22 -158.7,346.07zm-340.88,137.18c135.04,0 260.99,-43.39 355.04,-122.39c104.1,-87.44 160.94,-212.05 165.17,-360.86l6.19,0c-4.24,150.56 -61.81,276.71 -167.27,365.3c-95.18,79.94 -222.59,123.86 -359.12,123.86c-1.21,0 -2.4,0 -3.61,-0.01l-0.09,0c-82.28,-0.48 -161.07,-16.96 -231.46,-47.43l0,-6.47c70.24,30.84 149.1,47.51 231.49,47.99c1.21,0.01 2.45,0.01 3.66,0.01zm369.21,-107.61c-98.63,82.88 -231.15,128.1 -372.87,127.3c-82.08,-0.46 -160.79,-16.39 -231.49,-45.91l0,6.47c70.82,29.18 149.49,44.89 231.46,45.35c1.24,0 2.46,0.01 3.7,0.01c141.92,0 274.38,-45.67 373.29,-128.78c109.68,-92.16 169.49,-223.42 173.73,-380.08l-6.19,0c-4.23,154.9 -63.31,284.63 -171.63,375.64zm-369.21,147c145.82,0 281.85,-46.88 383.38,-132.21c112.54,-94.59 173.85,-229.43 178.09,-390.43l6.2,0c-4.26,162.75 -66.29,299.12 -180.21,394.86c-102.65,86.28 -240.14,133.69 -387.46,133.69c-1.22,0 -2.42,0 -3.64,-0.01l-0.06,0c-81.7,-0.44 -160.24,-15.48 -231.45,-43.48l0,-6.35c71.09,28.31 149.7,43.48 231.49,43.92c1.22,0.01 2.45,0.01 3.67,0.01l-0.01,0zm397.54,-117.43c-105.27,88.5 -246.31,137.13 -397.53,137.13c-1.22,0 -2.45,-0.01 -3.67,-0.01c-81.56,-0.42 -160.02,-15.08 -231.49,-42.29l0,6.35c71.56,26.93 149.98,41.42 231.45,41.85l0.1,0c1.21,0 2.4,0.01 3.6,0.01c152.72,0 295.23,-49.16 401.63,-138.6c118.13,-99.32 182.4,-240.81 186.66,-409.65l-6.19,0c-4.24,167.09 -67.79,307.04 -184.56,405.21zm-397.54,156.82c156.62,0 302.69,-50.37 411.7,-142.03c121,-101.75 186.78,-246.82 191.03,-420l6.2,0c-4.26,174.93 -70.77,321.54 -193.13,424.44c-110.14,92.6 -257.69,143.5 -415.79,143.5c-1.25,0 -2.47,0 -3.71,0c-81.25,-0.41 -159.58,-14.3 -231.45,-40.22l0,-6.35c71.78,26.19 150.15,40.24 231.48,40.66c1.22,0 2.45,0 3.68,0l-0.01,0zm425.87,-127.24c-112.75,94.83 -263.86,146.94 -425.86,146.94c-1.23,0 -2.46,0 -3.69,-0.01c-81.11,-0.39 -159.41,-13.83 -231.47,-39.05l0,6.24c72.14,24.99 150.4,38.33 231.44,38.72c1.25,0.01 2.47,0.01 3.72,0.01c163.5,0 316.08,-52.64 429.95,-148.42c126.59,-106.47 195.32,-258.19 199.59,-439.22l-6.19,0c-4.26,179.27 -72.27,329.46 -197.49,434.79zm-429.56,166.63c168.72,0.8 326.37,-53.13 443.71,-151.84c129.46,-108.91 199.71,-264.21 203.97,-449.58l6.2,0c-4.28,187.12 -75.25,343.95 -206.07,454.01c-117.62,98.94 -275.22,153.33 -444.12,153.33c-1.24,0 -2.47,-0.01 -3.72,-0.01c-80.87,-0.39 -159.02,-13.33 -231.43,-37.47l0,-6.24c72.33,24.36 150.52,37.42 231.46,37.8zm457.88,-137.05c-120.23,101.16 -281.39,156.75 -454.18,156.75l-1.94,0l-0.92,0l-0.78,0l-0.06,0c-80.78,-0.38 -158.88,-13.01 -231.46,-36.56l0,6.24c72.64,23.34 150.72,35.85 231.42,36.22c1.26,0.01 2.48,0.01 3.74,0.01c174.28,0 336.92,-56.12 458.26,-158.23c135.06,-113.63 208.27,-275.58 212.54,-468.8l-6.19,0c-4.26,191.46 -76.75,351.88 -210.43,464.37zm-457.9,176.44c179.49,0.71 347.22,-56.61 472.05,-161.65c137.92,-116.07 212.64,-281.6 216.91,-479.16l6.19,0c-4.27,199.31 -79.72,366.38 -219.01,483.59c-125.08,105.27 -292.75,163.14 -472.43,163.14c-1.26,0 -2.48,0 -3.74,-0.01c-80.54,-0.36 -158.57,-12.39 -231.41,-34.97l0,-6.25c72.78,22.79 150.83,34.95 231.44,35.31zm3.72,39.4c188.97,0 365.2,-60.82 496.65,-171.47c146.38,-123.22 225.57,-298.99 229.85,-508.74l6.19,0c-4.28,211.5 -84.2,388.81 -231.95,513.17c-132.57,111.6 -310.28,172.95 -500.74,172.95c-1.26,0 -2.51,0 -3.78,-0.01c-80.27,-0.34 -158.17,-11.68 -231.38,-32.91l0,-6.15c73.16,21.4 151.09,32.81 231.41,33.16c1.25,0 2.51,0 3.75,0zm510.8,-156.67c-135.18,113.81 -316.45,176.37 -510.8,176.37c-1.25,0 -2.51,-0.01 -3.77,-0.01c-80.2,-0.33 -158.06,-11.46 -231.39,-32.23l0,6.15c73.38,20.62 151.21,31.66 231.37,31.99c1.26,0.01 2.53,0.01 3.79,0.01c195.86,0 378.58,-63.09 514.9,-177.85c151.97,-127.95 234.13,-310.37 238.42,-527.97l-6.19,0c-4.28,215.85 -85.72,396.73 -236.33,523.54zm-510.8,196.07c199.75,0 386.03,-64.3 524.96,-181.28c154.84,-130.38 238.51,-316.38 242.8,-538.33l6.19,0c-4.29,223.7 -88.69,411.23 -244.9,542.77c-140.05,117.92 -327.81,182.74 -529.05,182.74c-1.27,0 -2.54,0 -3.81,0c-80.04,-0.33 -157.83,-11.04 -231.35,-31.07l0,-6.16c73.48,20.19 151.29,30.99 231.38,31.32c1.25,0 2.53,0 3.78,0l0,0.01zm539.11,-166.48c-142.66,120.13 -333.97,186.17 -539.11,186.17c-1.26,0 -2.55,0 -3.81,-0.01c-79.96,-0.31 -157.73,-10.77 -231.35,-30.38l0,6.15c73.65,19.48 151.41,29.83 231.33,30.14c1.28,0.01 2.55,0.01 3.83,0.01c206.63,0 399.42,-66.57 543.2,-187.65c160.45,-135.11 247.09,-327.76 251.38,-557.56l-6.19,0c-4.28,228.05 -90.2,419.17 -249.28,553.13zm-539.11,205.86c210.53,0 406.86,-67.77 553.26,-191.07c163.32,-137.54 251.47,-333.77 255.76,-567.92l6.19,0c-4.29,235.89 -93.17,433.67 -257.86,572.35c-147.52,124.24 -345.33,192.55 -557.35,192.55c-1.29,0 -2.56,0 -3.85,0c-79.8,-0.31 -157.55,-10.28 -231.31,-29.22l0,-6.16c73.73,19.08 151.49,29.16 231.33,29.47c1.27,0 2.56,0 3.83,0z" fill="#f7bdb9" fill-opacity="0.64" fill-rule="evenodd" id="svg_7"/>
  </g>
 </g>
</svg>