<?xml version="1.0"?>
<svg width="846" height="594" xmlns="http://www.w3.org/2000/svg" xmlns:svg="http://www.w3.org/2000/svg" xmlns:xlink="http://www.w3.org/1999/xlink">
 <mask height="543" id="pif" maskUnits="userSpaceOnUse" width="654" x="96" y="-42">
  <path clip-rule="evenodd" d="m750,344.9l-574,-386.9l90.42,175.87l-170.42,-114.87l247.82,482l326.18,-95.1l-39.02,-26.3l119.02,-34.7z" fill="#fff" fill-rule="evenodd" filter="url(#pie)" id="svg_1"/>
 </mask>
 <defs>
  <filter id="pie">
   <feGaussianBlur stdDeviation="96"/>
  </filter>
  <filter color-interpolation-filters="sRGB" filterUnits="userSpaceOnUse" height="666.84" id="pia" width="758.84" x="3.58" y="-73.42">
   <feFlood flood-opacity="0" result="BackgroundImageFix"/>
   <feBlend in="SourceGraphic" in2="BackgroundImageFix"/>
   <feGaussianBlur result="effect1_foregroundBlur_4012_3" stdDeviation="46.21"/>
  </filter>
  <filter color-interpolation-filters="sRGB" filterUnits="userSpaceOnUse" height="666.84" id="pic" width="758.84" x="83.58" y="-134.42">
   <feFlood flood-opacity="0" result="BackgroundImageFix"/>
   <feBlend in="SourceGraphic" in2="BackgroundImageFix"/>
   <feGaussianBlur result="effect1_foregroundBlur_4012_3" stdDeviation="46.21"/>
  </filter>
  <symbol enable-background="new 0 0 2372 1898" id="svg_18" version="1.1" viewBox="0 0 2372 1898" x="0px" xml:space="preserve" xmlns="http://www.w3.org/2000/svg" xmlns:xlink="http://www.w3.org/1999/xlink" y="0px">
   <path d="m2118.11,535.99c-24.98,-32.01 -67.6,-41.7 -97.48,-46.21c-55.52,-8.39 -111.53,-4.38 -158.99,0.65c-62.83,6.65 -129.99,18.68 -211.37,37.87c-40.03,9.44 -97.76,26.12 -133.43,36.25l3.37,3.44c-91.03,-82.34 -211.73,-132.5 -344.15,-132.5c-238.76,0 -439.43,163.06 -496.75,383.89l-0.02,0.07c-0.55,2.09 -1.07,4.19 -1.59,6.29l-0.02,0.08c-2.87,11.69 -5.35,23.55 -7.4,35.55l-0.01,0.01c-0.18,1.06 -0.36,2.13 -0.53,3.19l-0.08,0.49c-0.15,0.91 -0.3,1.82 -0.44,2.73l-0.12,0.73c-0.13,0.84 -0.26,1.67 -0.39,2.51l-0.12,0.86c-0.12,0.79 -0.24,1.59 -0.36,2.38l-0.13,0.94c-0.11,0.78 -0.22,1.56 -0.33,2.35l-0.14,0.98c-0.1,0.73 -0.2,1.47 -0.29,2.2l-0.16,1.21c-0.09,0.7 -0.18,1.4 -0.27,2.11l-0.14,1.11c-0.09,0.71 -0.17,1.42 -0.26,2.13l-0.15,1.28c-0.08,0.65 -0.15,1.3 -0.22,1.95l-0.16,1.37c-0.07,0.65 -0.14,1.3 -0.21,1.95l-0.13,1.29c-0.07,0.67 -0.14,1.34 -0.21,2.01l-0.13,1.35c-0.06,0.64 -0.12,1.28 -0.18,1.93l-0.13,1.4c-0.06,0.61 -0.11,1.23 -0.16,1.84l-0.13,1.49c-0.05,0.62 -0.1,1.23 -0.15,1.85l-0.12,1.45c-0.05,0.63 -0.1,1.26 -0.14,1.89l-0.11,1.43c-0.04,0.63 -0.08,1.26 -0.13,1.89l-0.09,1.46l-0.09,1.32l-0.02,0.45l0,0.03c-0.04,0.51 -0.07,1.03 -0.1,1.55c-0.03,0.57 -0.06,1.15 -0.09,1.72l-0.04,0.57l-0.05,1c-0.03,0.65 -0.06,1.29 -0.09,1.94l-0.07,1.42l-0.03,0.73l-2.71,1.52c-60.29,35.53 -148.79,91.32 -216.39,141.29c-57.07,42.21 -100.15,79.54 -135.56,117.48c-95.79,102.64 -77.33,160.43 -44.97,190.84c23.92,22.48 56.92,30.35 83,34.7c24.22,4.05 48.48,5.42 71.67,5.42c19.77,0 38.77,-1 56.3,-2.2c127.47,-8.74 250.06,-39.54 353.17,-68.52c5.91,-1.67 11.82,-3.35 17.74,-5.04c89.28,75.2 204.56,120.52 330.44,120.52c57.57,0 112.92,-9.48 164.59,-26.96c1.99,-0.67 3.97,-1.36 5.95,-2.06c0.98,-0.34 1.97,-0.7 2.95,-1.05c1.98,-0.71 3.94,-1.43 5.9,-2.16c2.94,-1.1 5.86,-2.22 8.78,-3.37c1.94,-0.76 3.88,-1.54 5.81,-2.33c0.96,-0.39 1.93,-0.79 2.89,-1.19c1.92,-0.8 3.84,-1.61 5.75,-2.44c1.92,-0.82 3.82,-1.65 5.72,-2.5c1.9,-0.84 3.8,-1.7 5.69,-2.57c24.55,-11.28 48.05,-24.44 70.33,-39.29c2.57,-1.72 5.12,-3.46 7.66,-5.21c0.85,-0.59 1.69,-1.18 2.53,-1.77c4.21,-2.96 8.38,-5.98 12.49,-9.05c1.65,-1.24 3.29,-2.48 4.92,-3.73c5.71,-4.37 11.32,-8.87 16.84,-13.48c2.36,-1.97 4.71,-3.97 7.04,-5.98c1.55,-1.35 3.09,-2.7 4.63,-4.06c0.77,-0.68 1.53,-1.37 2.3,-2.05c9.16,-8.23 18.02,-16.79 26.57,-25.65c1.43,-1.47 2.85,-2.96 4.25,-4.45c5.63,-5.98 11.12,-12.09 16.46,-18.33c0.67,-0.78 1.33,-1.56 2,-2.34c3.31,-3.92 6.57,-7.9 9.77,-11.91c0.63,-0.81 1.27,-1.61 1.91,-2.42c5.08,-6.46 10,-13.05 14.77,-19.76c0.6,-0.84 1.19,-1.68 1.78,-2.52c1.78,-2.53 3.53,-5.07 5.26,-7.63c1.15,-1.71 2.29,-3.42 3.43,-5.14c19.04,-28.93 35.23,-59.89 48.17,-92.5l0.06,-0.15c0.29,-0.71 0.57,-1.43 0.85,-2.15l0.17,-0.44c0.28,-0.71 0.55,-1.42 0.83,-2.13l0.07,-0.18c1.18,-3.08 2.34,-6.18 3.47,-9.29l0.18,-0.49c0.24,-0.67 0.48,-1.34 0.72,-2.01l0.2,-0.56c0.24,-0.7 0.49,-1.39 0.73,-2.08l0.08,-0.24c0.8,-2.29 1.59,-4.58 2.36,-6.88l0.13,-0.4c0.23,-0.68 0.45,-1.35 0.67,-2.02l0.2,-0.62c0.22,-0.66 0.43,-1.32 0.64,-1.98l0.22,-0.67c0.21,-0.67 0.43,-1.33 0.64,-2l0.11,-0.35c0.69,-2.19 1.37,-4.39 2.03,-6.6l0.24,-0.81c0.19,-0.61 0.37,-1.22 0.55,-1.84l0.24,-0.82c0.18,-0.61 0.36,-1.23 0.54,-1.84l0.26,-0.9c0.18,-0.63 0.36,-1.25 0.53,-1.88l0.08,-0.26c0.63,-2.23 1.24,-4.46 1.84,-6.7l0.25,-0.94c0.15,-0.58 0.3,-1.15 0.45,-1.73l0.28,-1.07c0.15,-0.56 0.3,-1.13 0.44,-1.69l0.25,-0.99c0.16,-0.61 0.31,-1.23 0.47,-1.84l0.02,-0.12c0.34,-1.36 0.68,-2.72 1,-4.08l0.26,-1.07c0.13,-0.53 0.26,-1.07 0.38,-1.61l0.29,-1.24c0.12,-0.52 0.24,-1.04 0.36,-1.57l0.29,-1.24c0.12,-0.55 0.24,-1.09 0.36,-1.63l0.25,-1.09c0.12,-0.58 0.25,-1.16 0.38,-1.74l0.03,-0.18c0.29,-1.33 0.58,-2.67 0.86,-4.01l0.25,-1.23c0.11,-0.53 0.22,-1.05 0.32,-1.58l0.25,-1.23c0.11,-0.55 0.22,-1.1 0.33,-1.66l0.24,-1.24c0.1,-0.52 0.2,-1.04 0.3,-1.56l0.28,-1.46c0.11,-0.62 0.23,-1.23 0.34,-1.85c0.14,-0.75 0.27,-1.49 0.41,-2.24l0.24,-1.37c0.09,-0.51 0.18,-1.02 0.27,-1.54l0.25,-1.46l0.24,-1.4l0.24,-1.49c0.09,-0.51 0.17,-1.02 0.25,-1.53l0.22,-1.38c0.1,-0.57 0.18,-1.15 0.27,-1.73c0.1,-0.65 0.2,-1.3 0.3,-1.95c0.1,-0.65 0.2,-1.31 0.3,-1.96l0.2,-1.43l0.22,-1.49l0.2,-1.44c0.07,-0.53 0.14,-1.06 0.21,-1.59l0.19,-1.37c0.07,-0.54 0.14,-1.09 0.21,-1.64l0.17,-1.27c0.08,-0.68 0.17,-1.37 0.25,-2.05c0.08,-0.63 0.15,-1.26 0.23,-1.89c0.07,-0.61 0.14,-1.23 0.21,-1.85l0.15,-1.25c0.06,-0.58 0.12,-1.15 0.19,-1.73l0.15,-1.39l0.15,-1.5l0.16,-1.5c0.05,-0.53 0.1,-1.05 0.15,-1.58l0.14,-1.38c0.08,-0.93 0.17,-1.87 0.25,-2.8l0.1,-1.12c0.06,-0.62 0.11,-1.24 0.16,-1.86l0.11,-1.39c0.05,-0.53 0.09,-1.06 0.13,-1.59l0.11,-1.46l0.03,-0.4c126.45,-71.56 218.42,-132.93 298.06,-198.89c39.13,-32.4 68.88,-61.09 93.64,-90.29c17.62,-20.77 39.14,-48.81 49.26,-81.51c9.65,-31.23 5.96,-59.01 -10.69,-80.33zm-371.66,119.58l2.51,0.13l1.16,-0.02l0.15,0.03c0.78,0.14 1.49,0.26 2.05,0.31c6.37,0.63 12,1.48 17.23,2.6c1.13,0.25 2.25,0.55 3.37,0.85c0.54,0.15 1.09,0.29 1.63,0.43l0.23,0.07l0,0.02l0.34,0.07l0.93,0.22l0.48,0.14c1.23,0.42 2.46,0.87 3.67,1.36c4,1.62 7.32,3.4 10.16,5.44c1.11,0.79 2.27,1.75 3.65,3.02l0.2,0.2l0.06,0.07c0.41,0.52 0.83,1.03 1.21,1.59c2.69,3.92 4.06,8.71 3.97,13.87c-0.02,1.23 -0.13,2.46 -0.29,3.68l-0.23,1.44l-0.09,0.53l0,0.01l-0.05,0.15c-1.18,3.96 -2.24,6.9 -3.44,9.55c-3.07,6.8 -7.29,13.67 -13.28,21.65c-3.03,4.03 -6.35,8.1 -10.15,12.43c-1.24,1.42 -2.51,2.81 -3.78,4.2l-2.7,2.9c-1.12,1.16 -2.25,2.32 -3.39,3.46c-8.76,8.85 -18.56,17.85 -29.94,27.53c-17.57,14.94 -36.79,29.76 -59.32,45.73l-0.23,-0.88l-0.08,-0.3c-0.68,-2.59 -1.38,-5.16 -2.09,-7.73l-0.16,-0.55c-0.32,-1.15 -0.65,-2.31 -0.98,-3.47l-0.09,-0.31c-0.75,-2.59 -1.52,-5.17 -2.3,-7.73l-0.11,-0.33c-0.37,-1.2 -0.74,-2.4 -1.12,-3.6l-0.07,-0.25c-0.82,-2.6 -1.66,-5.18 -2.52,-7.76l-0.03,-0.08c-0.42,-1.26 -0.84,-2.52 -1.27,-3.78l-0.05,-0.14c-1.33,-3.86 -2.69,-7.7 -4.1,-11.52l-0.07,-0.18c-13.26,-35.84 -30.41,-69.8 -50.93,-101.35l1.59,2.31c11.57,-2.46 18.44,-3.93 29.29,-5.91c5.03,-0.92 10.08,-1.81 15.13,-2.66c2.76,-0.46 5.52,-0.91 8.29,-1.35l1.64,-0.25c10.23,-1.5 19.72,-2.71 28.99,-3.69c4.51,-0.48 9.02,-0.91 13.54,-1.29c1.86,-0.16 3.72,-0.3 5.57,-0.43c0.83,-0.01 1.74,-0.08 2.75,-0.17c6.47,-0.3 14.7,-0.61 23.04,-0.53c3.34,0.03 6.68,0.12 10.03,0.27zm-1147.71,490.54l0.99,-1l1.39,-1.45c1.26,-1.3 2.54,-2.6 3.84,-3.89c3.03,-3.03 6.12,-6.01 9.25,-8.94c12.3,-11.53 26.2,-23.32 42.49,-36.04c7.37,-5.75 14.42,-11.48 22.42,-17.34l-0.19,-0.92c13.1,51.1 33.88,99.13 61.03,142.78c-5.53,1.07 -10.98,2.09 -16.38,3.05c-4.12,0.73 -8.24,1.44 -12.37,2.13c-2.27,0.37 -4.55,0.74 -6.81,1.1l-0.13,0.02c-9.15,1.34 -16.77,2.35 -23.94,3.18c-7.77,0.9 -15.31,1.64 -22.45,2.2l-4.45,0.33l-0.11,0.01c-3.35,0.16 -6.7,0.32 -10.06,0.42c-6.79,0.21 -13.05,0.23 -19.13,0.07c-2.01,-0.05 -4.01,-0.15 -6.01,-0.25l-2.27,-0.15c-1.15,-0.1 -2.3,-0.2 -3.45,-0.32c-5.19,-0.53 -9.87,-1.21 -14.31,-2.08c-2,-0.4 -3.99,-0.84 -5.96,-1.34l-1.19,-0.32l-1.36,-0.37l-0.16,-0.06c-5.15,-1.83 -11.71,-4.5 -16.79,-8.96l-0.51,-0.48l-0.78,-0.74l-0.31,-0.4c-0.56,-0.73 -1.13,-1.45 -1.62,-2.25c-1.34,-2.19 -2.29,-4.59 -2.81,-7.13c-0.58,-2.81 -0.66,-5.93 -0.23,-9.26l0.19,-1.3l0.08,-0.34l0.27,-1.22c0.58,-1.91 1.28,-4.15 2.14,-6.28c3.35,-8.34 8.63,-16.96 16.59,-27.16c2.02,-2.58 4.11,-5.12 6.25,-7.61c1.06,-1.24 2.14,-2.46 3.22,-3.68l2.28,-2.52l1.02,-1.16l0.02,0.01l0.32,-0.34l-0.01,0zm39.49,188.93c-13.6,2.65 -27.09,5.11 -40.1,7.32c-14.23,2.4 -21.66,3.55 -34.59,5.35c-44.24,6.16 -82.82,10 -127.32,8.78c-33.96,-0.95 -59.71,-5.32 -78.73,-13.36c-25.35,-10.72 -28.48,-23.85 -29.51,-28.16c-5,-21.04 9.72,-46.25 21.24,-63.39c25.9,-38.54 61.73,-71.38 93.35,-98.42c43.99,-37.61 95.38,-75.42 157.11,-115.6c24.89,-16.2 41.7,-27.74 65.15,-41.83l-0.05,-2.5c1.22,14.15 3.01,28.13 5.35,41.93c-9.78,6.41 -18.73,12.6 -28.31,19.19c-28.9,19.84 -66.33,46.7 -99.49,78.53c-16.72,16.04 -55.88,53.61 -54.89,86.69c0.34,11.43 5.29,21.3 14.71,29.32c14.95,12.72 37.2,16.29 54.92,17.98c10.33,0.99 20.92,1.49 32.15,1.49c18.35,0 38.41,-1.33 61.87,-4.03c36.4,-4.19 72.42,-10.52 106.94,-17.91c12.59,17.65 26.27,34.47 40.95,50.36c-26.16,7.2 -51.95,13.88 -77.24,20c-28.24,6.84 -55.56,12.81 -83.51,18.26zm1386.87,-687.92c-15.17,23.46 -35.22,46.44 -65.01,74.49c-79.66,74.99 -171.4,134.37 -250.64,182.56c-7.01,4.27 -14.07,8.52 -21.16,12.75c-0.05,-0.7 -0.09,-1.41 -0.14,-2.12l-0.03,-0.54l-0.05,-0.75c-0.07,-0.95 -0.14,-1.9 -0.21,-2.85l-0.04,-0.67l-0.03,-0.4c-0.1,-1.33 -0.21,-2.65 -0.32,-3.97l-0.05,-0.65c-0.09,-0.99 -0.17,-1.99 -0.26,-2.98l-0.05,-0.51l-0.08,-0.84c-0.08,-0.9 -0.17,-1.8 -0.26,-2.71l-0.06,-0.69l-0.05,-0.49c-0.13,-1.33 -0.27,-2.65 -0.42,-3.97l-0.04,-0.44c-0.12,-1.06 -0.24,-2.11 -0.36,-3.16l-0.04,-0.33l-0.11,-0.96c-0.11,-0.89 -0.21,-1.78 -0.32,-2.68l-0.07,-0.57l-0.09,-0.69c-0.13,-1 -0.26,-2.01 -0.39,-3.02l-0.04,-0.31c-0.2,-1.49 -0.4,-2.98 -0.61,-4.47l-0.13,-0.9c-0.13,-0.88 -0.26,-1.77 -0.39,-2.65l-0.07,-0.47l-0.13,-0.86c-0.14,-0.97 -0.29,-1.95 -0.45,-2.93l-0.02,-0.15c-0.25,-1.57 -0.5,-3.14 -0.77,-4.71l-0.11,-0.67c-0.1,-0.58 -0.19,-1.17 -0.29,-1.75c30.53,-19.61 58.21,-38.91 84.35,-58.74c29.51,-22.37 50.76,-40.82 68.91,-59.84c15.65,-16.41 30.36,-32.82 38.26,-53.18c7.04,-18.15 5.63,-33.72 -4.08,-45.04c-15.59,-18.16 -41.58,-22.46 -64.95,-24.28c-42.96,-3.35 -85.19,1.75 -117.19,6.56c-27.73,4.17 -62.47,9.32 -97.99,17.3l2.81,4.09c-9.98,-13.79 -20.64,-27.06 -31.91,-39.76c78.97,-22.43 138.76,-35.13 203.7,-46.57c63.36,-11.16 114.43,-16.34 160.09,-16.07c79.61,0.34 120.37,16.95 121.16,49.36c0.45,18.36 -10.38,37.55 -19.87,52.23z" fill="#FCE5E6"/>
   <path d="m1325.19,896.43c-1.44,-18.85 -2.8,-38.84 -10.38,-56.39l-0.08,-0.21l-0.19,-0.38l-0.64,-1.3c-0.37,-0.73 -0.76,-1.46 -1.16,-2.17c-0.82,-1.43 -1.72,-2.78 -2.65,-4.13l-0.76,-1.02l-1.35,-1.45c-0.91,-0.92 -1.9,-1.74 -2.91,-2.54l-0.82,-0.5c-0.51,-0.28 -1.04,-0.55 -1.55,-0.83l-0.81,-0.35l-1.22,-0.43c-0.63,-0.14 -1.27,-0.3 -1.91,-0.43l-0.89,-0.15c-1.12,-0.07 -2.25,-0.1 -3.37,-0.03c-0.79,0.04 -1.56,0.14 -2.34,0.22l-0.14,0.01l-0.3,0.08c-1.36,0.33 -2.72,0.64 -4.07,1.06c-1.52,0.48 -2.99,1.05 -4.47,1.65l-0.33,0.13l-0.4,0.2c-0.78,0.37 -1.55,0.75 -2.32,1.14c-6.56,3.41 -12.62,7.73 -18.39,12.33l-0.52,0.41l-0.37,0.31l-0.94,0.78c-0.73,0.62 -1.47,1.25 -2.2,1.88c-1.71,1.48 -3.39,2.99 -5.05,4.53c-3.27,3 -6.46,6.1 -9.58,9.25c-6.9,6.96 -13.5,14.2 -19.92,21.59c-24.61,28.36 -46.39,58.93 -69.08,88.8c-11.43,15.04 -23.5,29.61 -35.19,44.44c-15.02,19.07 -31.22,39.71 -52.49,52.16c-8.97,5.25 -19.25,8.9 -29.76,8.13c-11.84,-0.86 -22.3,-6.78 -30.58,-15.11c-21.99,-22.12 -29.13,-54.33 -30.93,-84.46c-1.67,-27.89 1.04,-56.04 2.64,-83.89c1.27,-22.37 3.43,-45.01 1.82,-67.41c-0.6,-8.35 -1.49,-15.26 -4.75,-23.24l-0.09,-0.21l-0.07,-0.14l-0.6,-1.2c-0.37,-0.67 -0.73,-1.34 -1.13,-1.99c-0.45,-0.73 -0.94,-1.41 -1.43,-2.12l-0.19,-0.29l-0.26,-0.27c-0.64,-0.67 -1.28,-1.31 -1.95,-1.94l-1.06,-0.88l-1.2,-0.78c-0.73,-0.4 -1.48,-0.76 -2.23,-1.14l-0.84,-0.34l-0.61,-0.19c-0.76,-0.21 -1.52,-0.41 -2.29,-0.57c-2.46,-0.52 -2.06,-0.47 -4.19,-0.52c-4.41,-0.1 -8.47,0.38 -12.55,1.3c-3.2,0.72 -6.35,1.6 -9.46,2.62c11.61,27.88 11.49,64.7 -1.02,101.93c-4.28,12.74 -10.01,25.53 -17.23,38.02c-40.63,70.38 -112.82,104.78 -161.22,76.84c-18.85,-10.88 -31.31,-29.61 -37.11,-52.58c-3.27,-12.98 -4.42,-27.32 -3.38,-42.35c-20.87,-3.2 -37.31,-17.26 -46.7,-36.32c-2.33,16.39 -3.9,33.02 -4.64,49.87l0.05,-0.03l0.96,48.1l0.38,18.83c1.22,14.33 3.03,28.5 5.4,42.47l5.19,24.49l3.5,16.52l0.2,0.79c0.28,1.08 0.56,2.15 0.85,3.23l0.36,1.35c0.27,1.03 0.55,2.06 0.84,3.09l0.26,0.96c0.37,1.33 0.74,2.66 1.12,3.98l0.27,0.95c0.3,1.05 0.6,2.1 0.91,3.14l0.34,1.16c0.81,2.71 1.63,5.4 2.48,8.09l0.27,0.84c0.35,1.13 0.72,2.26 1.08,3.39l0.26,0.78c0.9,2.76 1.82,5.51 2.76,8.24l0.21,0.61c1.49,4.27 3.02,8.52 4.61,12.74l0.01,0.02c4.12,10.94 8.61,21.71 13.44,32.28l0.02,0.01c9.08,19.85 19.39,39.02 30.83,57.42c13.06,-2.53 26.53,-5.37 40.78,-8.6l7.76,-1.82c5.13,-1.22 10.25,-2.47 15.37,-3.74c0.62,-0.15 1.25,-0.31 1.87,-0.47c9.7,-2.42 19.72,-5 29.81,-7.7c14.2,-3.79 28.87,-7.88 43.84,-12.23c7.63,-2.21 15.33,-4.49 23.1,-6.83c1.17,-0.35 3.93,-1.24 5.82,-1.84l1.01,-0.31l0.79,-0.26l0.02,0.06l1.07,-0.32l2.96,-0.9c2.08,-0.65 4.17,-1.3 6.25,-1.96c3.48,-1.09 6.95,-2.18 10.41,-3.28c11.96,-3.81 24.12,-7.77 36.12,-11.77c9.78,-3.26 19.68,-6.62 29.64,-10.06c8.82,-3.04 17.69,-6.15 26.59,-9.31c6.2,-2.2 12.41,-4.43 18.62,-6.68c12.85,-4.66 25.83,-9.45 38.56,-14.25c6.9,-2.6 13.8,-5.22 20.69,-7.87l13.01,-5.02l0.06,-0.02c1.12,-0.44 2.24,-0.89 3.36,-1.33c53.59,-21.1 106.35,-43.24 156.88,-65.85c10.81,-4.83 21.62,-9.73 32.36,-14.66c10.11,-4.65 20.16,-9.32 30.12,-14.01c-8.16,-36.58 -8.82,-74.62 -11.67,-111.85z" fill="#BF8BBD"/>
   <path d="m1641.94,733.25c-10.43,-22.49 -22.4,-44.11 -35.84,-64.7l-13.66,-19.88c-10.14,-14.05 -20.98,-27.56 -32.46,-40.49l-0.28,0.08l-39.1,-39.88c-23.05,-20.89 -48.01,-39.72 -74.58,-56.18c4.6,4.57 9.11,9.24 13.45,14.08c-4.28,-4.77 -8.72,-9.36 -13.23,-13.86c-1.59,-0.98 -3.12,-2.04 -4.71,-3.01c3.53,4 7.01,8.05 10.38,12.2c42.34,52.32 66.52,117.87 68.78,185.18c0.94,28.24 -2.18,60.34 -17.77,84.69c-13.15,20.55 -41.4,37.91 -64.72,22.14c-19.67,-13.31 -26.87,-39.91 -31.63,-61.83c-1.2,-5.56 -2.25,-11.16 -3.21,-16.77c-0.51,-2.96 -1,-5.93 -1.49,-8.9c-0.2,-1.25 -0.41,-2.51 -0.61,-3.76c-0.25,-1.55 -0.12,-0.75 -0.25,-1.54c-2.46,-14.76 -4.36,-29.62 -6.88,-44.37c-5.18,-30.37 -12.47,-62.55 -32.31,-87.04c-21.75,-26.86 -57.96,-40.17 -92.01,-36.7c-35.23,3.59 -66.45,24.82 -90.52,49.68c-21.16,21.87 -37.55,47.95 -55.71,72.25c-18.12,24.24 -37.32,48.07 -60,68.23c-17,15.12 -36.39,28.74 -58.09,35.96c-0.07,-22.21 0.68,-44.42 1.43,-66.61c0.69,-20.81 2.03,-41.87 0.68,-62.68c-0.13,-1.86 -0.28,-3.72 -0.5,-5.58c-0.07,-0.58 -0.16,-1.15 -0.23,-1.73l-0.09,-0.51c-1.21,-5.87 -2.32,-11.74 -3.89,-17.53c-1.45,-5.32 -3.18,-10.56 -5.34,-15.63l-0.18,-0.42l-0.19,-0.42l-0.62,-1.27c-0.5,-1.02 -1.02,-2.04 -1.57,-3.04c-0.93,-1.67 -1.92,-3.31 -2.99,-4.89c-0.54,-0.78 -1.11,-1.53 -1.68,-2.29l-1.3,-1.53c-1.07,-1.17 -2.21,-2.27 -3.43,-3.29l-1.18,-0.95l-0.03,-0.03c-0.58,-0.36 -1.14,-0.74 -1.73,-1.07c-1.09,-0.63 -2.23,-1.13 -3.38,-1.62l-1.64,-0.56c-0.67,-0.19 -1.35,-0.35 -2.03,-0.48c-0.72,-0.14 -1.44,-0.23 -2.16,-0.34l-0.99,-0.06c-1.61,-0.02 -3.22,0.01 -4.83,0.16c-0.62,0.06 -1.24,0.15 -1.86,0.24l-1.44,0.28c-8.66,1.99 -12.74,4 -19.88,8.05c-8.06,4.57 -15.63,9.98 -22.92,15.69c-4.38,3.43 -6.37,5.08 -10.76,8.86c-4.15,3.57 -8.23,7.21 -12.27,10.9c-8.3,7.59 -16.41,15.4 -24.47,23.26c-11.52,11.25 -22.91,22.65 -34.56,33.77c-16.33,-34.54 -20.83,-73.24 -16.66,-111.06c-40.55,38.5 -74.76,83.5 -101.05,133.42c-26.82,50.92 -45.31,106.91 -53.72,166.14c9.39,19.05 25.83,33.1 46.69,36.3c1.84,-26.7 10.55,-55.62 26.43,-83.11c40.63,-70.38 112.81,-104.78 161.22,-76.84c14.7,8.49 25.52,21.76 32.32,38.09c3.11,-1.01 6.26,-1.9 9.45,-2.62c4.09,-0.92 8.15,-1.4 12.56,-1.3c2.13,0.06 1.72,0 4.19,0.52c0.77,0.16 1.53,0.36 2.29,0.57l0.6,0.19l0.85,0.35c0.75,0.37 1.49,0.73 2.22,1.13l1.21,0.78l1.06,0.88c0.67,0.63 1.31,1.27 1.95,1.94l0.26,0.27l0.19,0.3c0.48,0.7 0.98,1.38 1.42,2.11c0.4,0.65 0.77,1.32 1.14,1.99l0.6,1.2l0.07,0.14l0.09,0.22c3.25,7.98 4.15,14.89 4.75,23.23c1.61,22.4 -0.55,45.04 -1.83,67.41c-1.59,27.85 -4.31,56 -2.64,83.89c1.81,30.14 8.95,62.34 30.94,84.46c8.28,8.33 18.73,14.25 30.58,15.12c10.51,0.76 20.79,-2.89 29.76,-8.14c21.27,-12.44 37.46,-33.09 52.49,-52.16c11.69,-14.83 23.76,-29.4 35.18,-44.44c22.7,-29.87 44.48,-60.44 69.09,-88.8c6.42,-7.39 13.02,-14.63 19.91,-21.59c3.13,-3.15 6.32,-6.25 9.58,-9.25c1.67,-1.54 3.35,-3.04 5.06,-4.53c0.73,-0.63 1.46,-1.25 2.2,-1.87l0.94,-0.79l0.37,-0.31l0.52,-0.41c5.77,-4.6 11.82,-8.92 18.39,-12.32c0.76,-0.4 1.54,-0.78 2.31,-1.15l0.41,-0.2l0.33,-0.13c1.47,-0.59 2.95,-1.17 4.47,-1.65c1.34,-0.42 2.71,-0.73 4.07,-1.06l0.3,-0.08l0.13,-0.01c0.78,-0.08 1.56,-0.18 2.34,-0.22c1.13,-0.07 2.25,-0.04 3.38,0.03l0.89,0.15c0.64,0.13 1.27,0.29 1.91,0.43l1.22,0.43l0.81,0.36c0.51,0.27 1.03,0.54 1.55,0.82l0.82,0.5c1.01,0.81 1.99,1.62 2.91,2.54l1.35,1.46l0.76,1.01c0.93,1.35 1.83,2.7 2.64,4.13c0.41,0.71 0.79,1.44 1.17,2.17l0.64,1.31l0.18,0.37l0.09,0.21c7.58,17.55 8.93,37.54 10.38,56.39c2.85,37.23 3.51,75.27 11.66,111.86c4.23,-1.99 8.44,-3.99 12.63,-5.98c12.51,-5.95 25.03,-12 37.19,-17.97l9.41,-4.64l0.18,-0.09l3.72,-1.86c5.8,-2.89 11.6,-5.81 17.39,-8.75c5.07,-2.57 10.09,-5.14 15.07,-7.7c27.4,-14.08 53.42,-27.98 78.58,-41.97c11.83,-6.58 23.48,-13.18 34.99,-19.83c19.65,-11.36 38.68,-22.75 56.57,-33.88c8.91,-5.54 17.71,-11.11 26.14,-16.57c2.81,-1.81 5.6,-3.64 8.4,-5.47c1.05,-6.35 1.99,-12.71 2.81,-19.09c3.94,-30.46 4.42,-60.89 2.01,-91.24z" fill="#F5B4C8"/>
   <path d="m1543.48,691.08c-11.92,-61.42 -42.29,-118.37 -84.01,-164.8c-4.28,-4.77 -8.72,-9.36 -13.23,-13.86c-1.59,-0.98 -3.12,-2.04 -4.71,-3.01c3.53,4 7.01,8.05 10.37,12.2c42.35,52.32 66.53,117.87 68.78,185.18c0.95,28.24 -2.17,60.34 -17.76,84.69c-13.15,20.54 -41.41,37.91 -64.72,22.14c-19.67,-13.31 -26.87,-39.91 -31.63,-61.83c-1.2,-5.57 -2.25,-11.16 -3.22,-16.77c-0.51,-2.96 -0.99,-5.93 -1.48,-8.9c-0.2,-1.25 -0.41,-2.51 -0.61,-3.76c-0.25,-1.55 -0.12,-0.75 -0.25,-1.54c-2.46,-14.76 -4.36,-29.62 -6.88,-44.38c-5.18,-30.36 -12.47,-62.54 -32.31,-87.03c-21.76,-26.86 -57.97,-40.17 -92.01,-36.7c-35.23,3.59 -66.45,24.82 -90.52,49.68c-21.16,21.87 -37.56,47.95 -55.72,72.25c-18.11,24.24 -37.31,48.07 -59.99,68.23c-17,15.11 -36.39,28.74 -58.1,35.96c0.02,4.8 0.07,9.59 0.16,14.39c0.48,23.5 1.46,47.91 7.84,70.68c4.26,15.18 13.08,33.27 31.09,34.08c15.78,0.7 29.43,-14.2 38.84,-24.99c16.39,-18.8 30.02,-40.08 43.23,-61.16c15.33,-24.45 29.85,-49.4 44.63,-74.18c6.97,-11.69 13.98,-23.35 21.22,-34.87c5.87,-9.36 13.14,-20.59 18.74,-28.32c5.2,-7.19 10.61,-14.35 16.92,-20.6c1.1,-1.09 2.23,-2.13 3.4,-3.14c0.59,-0.43 1.17,-0.86 1.76,-1.28c1.11,-0.8 2.24,-1.59 3.37,-2.36c4.18,-2.89 8.45,-5.64 12.84,-8.18c3.76,-2.18 7.61,-4.19 11.56,-6.01l1.61,-0.71c0.82,-0.34 1.65,-0.68 2.49,-1c1.85,-0.72 3.73,-1.39 5.63,-1.99c1.62,-0.5 3.25,-0.96 4.89,-1.36c0.83,-0.2 1.66,-0.39 2.5,-0.56l1.46,-0.25c2.9,-0.4 5.81,-0.66 8.74,-0.6c0.73,0.02 1.46,0.08 2.19,0.1l0.17,0l0.2,0.04c1.45,0.23 2.89,0.42 4.32,0.75c1.2,0.28 2.37,0.64 3.55,0.98l0.33,0.1l0.06,0.03c0.68,0.3 1.37,0.56 2.04,0.87c1.16,0.53 2.29,1.12 3.39,1.75c0.64,0.37 2.59,1.72 2.74,1.77c1.97,1.52 3.86,3.1 5.61,4.87c0.97,0.98 1.87,2 2.79,3.02l0.21,0.23l0.02,0.04c0.55,0.71 1.11,1.41 1.65,2.14c1.81,2.45 3.47,5.02 5,7.66c1.64,2.81 3.14,5.71 4.52,8.66l0.8,1.76c0.25,0.57 0.49,1.13 0.73,1.7c0.71,1.67 1.38,3.36 2.02,5.05c5.74,15.05 9.56,30.81 12.74,46.57c3.73,18.49 6.03,34.04 8.71,53.07c2.64,18.76 5.07,37.55 7.87,56.29c4.95,33.11 10.05,67.6 24.31,98.22c9.44,20.26 25.66,37.62 48.07,39.21c27.4,-14.08 53.42,-27.98 78.58,-41.97c12.09,-15.25 20.69,-33.27 26.82,-51.66c9.39,-28.2 12.99,-58.26 13.54,-87.88c0.56,-29.73 -2.23,-59.53 -7.9,-88.71z" fill="#F190B7"/>
   <path d="m1652.35,1006.82c-8.67,4.77 -17.39,9.52 -26.17,14.26c-34.45,18.57 -69.77,36.87 -105.9,54.86c-14.61,7.28 -29.36,14.52 -44.24,21.69c-44.56,21.51 -90.26,42.55 -136.97,63.06c-17.13,7.52 -34.38,14.97 -51.77,22.34c-4.41,1.87 -8.83,3.74 -13.25,5.6c-36.68,15.41 -72.78,30.05 -108.42,43.95c-26.46,10.32 -52.66,20.23 -78.65,29.75c-17.58,6.45 -35.07,12.71 -52.48,18.8c-10.41,3.64 -20.8,7.22 -31.16,10.74c1.73,3.64 3.31,7.33 4.78,10.96c6.45,15.8 10.64,33.19 19.75,47.62c12.75,20.2 32.87,36.78 55.98,43.46c21.19,6.12 43.5,3.59 62.21,-6.98c18.31,-10.33 35.25,-22.96 54.56,-31.47c17.44,-7.68 38.3,-11.2 52.97,3.84c14.22,14.58 16.76,35.76 25.23,53.49c8.17,17.1 22.45,25.84 38.83,29.29c138.66,-39.72 253.28,-136.3 317.04,-262.89l0.09,-0.17c0.5,-1 1,-1.99 1.49,-3l0.14,-0.27c1.53,-3.11 3.04,-6.24 4.52,-9.39l0.1,-0.22c0.44,-0.94 0.88,-1.89 1.32,-2.83l0.24,-0.52c0.39,-0.85 0.78,-1.7 1.16,-2.56l0.11,-0.23l0.22,-0.48c0.36,-0.8 0.72,-1.61 1.07,-2.41l0.14,-0.31l0.23,-0.52c0.35,-0.79 0.7,-1.58 1.05,-2.37l0.37,-0.86c0.46,-1.06 0.92,-2.12 1.37,-3.18l0.04,-0.08l0.34,-0.8l-0.01,-0.01c20.18,-47.56 33.4,-98.78 38.36,-152.4l0.01,-0.1c0.08,-0.86 0.16,-1.72 0.24,-2.58l0,-0.02c0.15,-1.76 0.3,-3.53 0.43,-5.3l0.03,-0.44l0.09,-1.12l-1.18,0.67c-11.33,6.41 -22.77,12.78 -34.31,19.13z" fill="#BF8BBD"/>
   <path d="m2118.11,535.99c-24.98,-32.01 -67.6,-41.7 -97.48,-46.21c-55.52,-8.39 -111.53,-4.38 -158.99,0.65c-62.83,6.65 -129.99,18.68 -211.37,37.87c-40.03,9.44 -97.76,26.12 -133.43,36.25l3.37,3.44l0.1,0.1l0.29,0.29l39.1,39.87l0.28,-0.07l0.02,-0.01l0.01,0c78.98,-22.43 138.77,-35.13 203.71,-46.57c63.36,-11.16 114.43,-16.34 160.09,-16.07c79.61,0.35 120.37,16.95 121.16,49.36c0.45,18.36 -10.38,37.55 -19.87,52.23c-15.17,23.46 -35.22,46.44 -65.01,74.49c-79.67,74.99 -171.41,134.37 -250.64,182.56c-7.02,4.27 -14.07,8.52 -21.17,12.75l0,0c-9.17,5.48 -18.41,10.92 -27.73,16.34c-3.61,2.1 -7.23,4.2 -10.87,6.3c-16,9.22 -32.21,18.37 -48.65,27.45c-71.02,39.24 -146.29,77.25 -227.3,114.81c-11.31,5.24 -22.74,10.48 -34.28,15.71c-7.89,3.58 -15.79,7.13 -23.68,10.64c-86.48,38.58 -172.77,73.66 -258,104.91c-17.08,6.27 -34.12,12.38 -51.11,18.33c-32.04,11.23 -63.89,21.9 -95.53,31.99c-19.86,6.35 -39.63,12.43 -59.24,18.24c-9.17,2.72 -18.3,5.38 -27.4,7.98c-2.51,0.72 -5.03,1.43 -7.53,2.14c-6.01,1.7 -12.01,3.37 -17.98,5.02l0,0c-26.16,7.2 -51.94,13.88 -77.23,20c-28.25,6.84 -55.57,12.81 -83.52,18.26c-13.6,2.65 -27.09,5.11 -40.1,7.32c-14.22,2.4 -21.66,3.55 -34.59,5.36c-44.23,6.15 -82.82,9.99 -127.32,8.77c-33.96,-0.95 -59.71,-5.32 -78.73,-13.36c-25.35,-10.72 -28.48,-23.85 -29.5,-28.16c-5.01,-21.04 9.71,-46.25 21.23,-63.39c25.9,-38.54 61.73,-71.38 93.35,-98.42c43.99,-37.61 95.38,-75.42 157.11,-115.6c24.9,-16.2 41.7,-27.74 65.16,-41.83l-0.05,-2.5l-0.01,-0.04l0,-0.43l-0.38,-18.83l-0.97,-48.1l-0.05,0.03l0,0l0,0l-2.71,1.52c-60.29,35.53 -148.8,91.32 -216.39,141.3c-57.07,42.2 -100.15,79.53 -135.56,117.47c-95.79,102.64 -77.33,160.43 -44.97,190.84c23.92,22.48 56.92,30.35 83,34.7c24.22,4.05 48.48,5.42 71.67,5.42c19.77,0 38.77,-1 56.3,-2.2c127.47,-8.74 250.06,-39.54 353.17,-68.52c5.91,-1.67 11.82,-3.35 17.74,-5.04c5.51,-1.59 11.02,-3.19 16.54,-4.8c35.46,-10.38 71.1,-21.46 107.02,-33.26c11.36,-3.73 22.74,-7.54 34.15,-11.42c10.36,-3.52 20.75,-7.1 31.16,-10.74c17.41,-6.09 34.9,-12.36 52.48,-18.8c25.99,-9.52 52.19,-19.43 78.65,-29.75c35.64,-13.9 71.74,-28.54 108.42,-43.95c4.42,-1.86 8.84,-3.73 13.25,-5.6c17.39,-7.37 34.64,-14.82 51.77,-22.34c46.71,-20.51 92.41,-41.55 136.97,-63.06c14.88,-7.17 29.63,-14.41 44.24,-21.69c36.13,-17.99 71.45,-36.29 105.9,-54.86c8.78,-4.74 17.5,-9.49 26.17,-14.26c11.54,-6.35 22.98,-12.73 34.31,-19.13l1.18,-0.67l0,0c126.45,-71.56 218.42,-132.94 298.07,-198.9c39.12,-32.4 68.87,-61.09 93.63,-90.28c17.62,-20.78 39.14,-48.82 49.26,-81.52c9.65,-31.23 5.96,-59.01 -10.69,-80.33z" fill="#F5E3BA"/>
   <path d="m1359.82,1326.62c20.65,12.39 45.94,9.72 67.44,1.15c26.83,-10.69 50.4,-29.68 71.22,-49.33c19.53,-18.42 37.47,-38.59 53.86,-59.84c44.36,-57.51 78.65,-123.96 96.13,-194.63c1.4,-5.69 2.7,-11.4 3.88,-17.15c-8.67,4.77 -17.39,9.52 -26.17,14.26c-3.75,9.98 -7.84,19.83 -12.32,29.5c-17.41,37.59 -41.06,71.07 -72.35,98.33c-27.84,24.27 -62.22,44.5 -98.8,51.61c-17.97,3.5 -36.94,3.94 -54.46,-1.98c-16.78,-5.66 -31.42,-16.56 -42.93,-29.93c-2.21,-2.57 -4.29,-5.21 -6.25,-7.92c-17.12,7.52 -34.38,14.97 -51.77,22.34c23.72,25.13 29.6,64.79 40.74,96.48c6.34,18.07 15.27,37.21 31.78,47.11z" fill="#A568A8"/>
   <path d="m751.39,1183.2c-14.27,-6.72 -28.31,-13.9 -42.23,-21.31c9.08,19.85 19.39,39.02 30.83,57.41c13.06,-2.53 26.53,-5.36 40.78,-8.59l7.76,-1.82c5.13,-1.23 10.25,-2.47 15.37,-3.74c0.62,-0.16 1.25,-0.31 1.87,-0.47c-6.07,-1.27 -12.02,-3.28 -17.72,-5.55c-12.38,-4.93 -24.6,-10.26 -36.66,-15.93z" fill="#F5B4C8"/>
   <path d="m1648.67,1148.98l-0.23,0.55c-16.67,26.95 -34.53,52.66 -54.73,77.14c-20.39,24.71 -42.12,48.39 -65.36,70.47c-23.79,22.62 -49.3,43.78 -77.55,60.63c-23.63,14.08 -50.5,26.04 -78.51,25.93c-26.9,-0.1 -50.05,-14.19 -66,-35.35c-9.36,-12.41 -16.73,-25.74 -20.88,-40.73c-4.11,-14.86 -6.57,-30.23 -11.98,-44.72c-4.92,-13.18 -12.61,-26.24 -26.4,-31.48c-14.2,-5.39 -29.62,-1.61 -41.92,6.56c-28.51,18.92 -45.37,51.31 -69.26,75.1c-10.77,10.73 -22.94,19.42 -38.47,20.85c-16.6,1.54 -30.03,-6.1 -40.72,-18.31c-8.99,-10.24 -15.74,-22.39 -22.16,-34.49c-10.41,3.64 -20.8,7.22 -31.15,10.74c1.72,3.64 3.3,7.33 4.77,10.96c6.45,15.81 10.64,33.19 19.75,47.62c12.75,20.2 32.87,36.78 55.98,43.46c21.19,6.12 43.5,3.59 62.21,-6.98c18.31,-10.33 35.25,-22.95 54.56,-31.47c17.44,-7.68 38.3,-11.19 52.97,3.84c14.22,14.59 16.76,35.76 25.23,53.5c8.17,17.1 22.45,25.83 38.83,29.28c138.66,-39.72 253.29,-136.29 317.04,-262.89l0.09,-0.17c0.5,-0.99 1,-1.99 1.49,-2.99l0.14,-0.27c1.54,-3.12 3.04,-6.25 4.52,-9.4l0.11,-0.22c0.44,-0.94 0.87,-1.88 1.31,-2.83l0.24,-0.52c0.39,-0.85 0.78,-1.7 1.16,-2.55l0.11,-0.24l0.22,-0.48c0.36,-0.8 0.72,-1.6 1.08,-2.41l0.13,-0.31l0.24,-0.52c0.34,-0.79 0.69,-1.58 1.04,-2.37l0.37,-0.85c0.46,-1.06 0.92,-2.13 1.37,-3.19l0.04,-0.08l0.34,-0.8l-0.02,-0.01z" fill="#F5B4C8"/>
   <path d="m675.37,1059.72c3.63,0.22 7.25,0.81 10.8,1.86c15.13,4.49 26.26,16.12 35.89,28.08c16.93,21.03 28.61,46.1 54.76,57.33c35.14,15.08 71.31,2.02 105.64,-8.23c16.92,-5.06 34.07,-9.41 51.86,-9.29c16.48,0.11 32.69,3.52 47.79,10.15c5.06,2.22 9.88,4.79 14.5,7.66c8.82,-3.04 17.69,-6.15 26.59,-9.31c-5.54,-0.39 -11.07,-1.33 -16.55,-2.89c-38.37,-10.97 -61.74,-47.38 -70.33,-84.5c-7.93,-34.27 -5.83,-69.44 -2.04,-104.08c1.61,-14.63 2.98,-29.56 1.3,-44.25c-0.38,-3.32 -0.99,-6.67 -1.91,-9.88c-4.28,12.74 -10.01,25.53 -17.23,38.03c-40.63,70.38 -112.82,104.78 -161.22,76.83c-18.85,-10.88 -31.31,-29.61 -37.11,-52.58l-0.74,-0.41c-5.73,-3.18 -11.46,-5.56 -17.89,-2.91c-9.21,3.82 -15.86,12.35 -24.33,17.49c-3.36,2.04 -6.98,3.82 -10.75,5.11l0.38,18.83c1.22,14.33 3.03,28.5 5.4,42.47l5.19,24.49z" fill="#A568A8"/>
   <path d="m1274.38,1036.95c-50.53,22.61 -103.29,44.75 -156.89,65.85c-1.11,0.45 -2.23,0.89 -3.35,1.33l-0.06,0.02l-13.01,5.02c-6.89,2.65 -13.79,5.27 -20.69,7.87c-12.74,4.8 -25.71,9.59 -38.57,14.25c-6.2,2.25 -12.41,4.48 -18.61,6.68c-8.9,3.16 -17.77,6.27 -26.6,9.31c-9.96,3.44 -19.85,6.8 -29.63,10.06c-12.01,4.01 -24.16,7.96 -36.12,11.77c-3.46,1.1 -6.94,2.19 -10.41,3.28c-2.08,0.66 -4.17,1.31 -6.26,1.96l-2.96,0.9l-1.06,0.33l-0.02,-0.07l-0.79,0.26l-1.01,0.31c-1.89,0.61 -4.66,1.49 -5.83,1.84c-7.76,2.34 -15.46,4.62 -23.1,6.84c-14.96,4.34 -29.64,8.43 -43.83,12.22c-10.1,2.7 -20.11,5.28 -29.81,7.7c-0.62,0.16 -1.25,0.32 -1.87,0.47c-5.12,1.27 -10.24,2.52 -15.37,3.74l-7.76,1.82c-14.25,3.23 -27.72,6.07 -40.78,8.6l-0.04,0.01c-5.52,1.06 -10.97,2.08 -16.37,3.04c-4.12,0.74 -8.24,1.45 -12.38,2.13c-2.27,0.38 -4.54,0.75 -6.81,1.11l-0.12,0.02c-9.15,1.33 -16.77,2.34 -23.95,3.18c-7.76,0.9 -15.31,1.64 -22.44,2.2l-4.45,0.32l-0.12,0.01c-3.34,0.17 -6.69,0.33 -10.05,0.43c-6.8,0.21 -13.05,0.23 -19.13,0.06c-2.01,-0.05 -4.01,-0.15 -6.02,-0.24l-2.26,-0.15c-1.15,-0.11 -2.31,-0.2 -3.45,-0.32c-5.19,-0.53 -9.87,-1.22 -14.31,-2.09c-2,-0.4 -3.99,-0.84 -5.96,-1.33l-1.19,-0.33l-1.36,-0.36l-0.16,-0.07c-5.15,-1.82 -11.71,-4.49 -16.79,-8.96l-0.51,-0.47l-0.78,-0.74l-0.31,-0.41c-0.57,-0.73 -1.13,-1.45 -1.62,-2.24c-1.34,-2.19 -2.29,-4.59 -2.82,-7.14c-0.57,-2.81 -0.65,-5.92 -0.22,-9.26l0.19,-1.3l0.08,-0.34l0.27,-1.21c0.58,-1.91 1.28,-4.15 2.14,-6.29c3.35,-8.33 8.63,-16.96 16.59,-27.15c2.02,-2.59 4.11,-5.12 6.25,-7.61c1.06,-1.24 2.14,-2.47 3.22,-3.68l2.28,-2.52l1.02,-1.17l0.02,0.02l0.32,-0.34l-0.01,-0.01l0.99,-1l1.38,-1.44c1.27,-1.31 2.55,-2.61 3.84,-3.89c3.04,-3.04 6.13,-6.01 9.26,-8.95c12.3,-11.53 26.2,-23.31 42.49,-36.04c7.37,-5.75 14.42,-11.48 22.42,-17.34l-0.19,-0.92l-0.06,-0.29l0,0l-3.5,-16.51l-5.19,-24.5l-0.02,-0.09l-0.02,0.02l0,0l-0.01,0c-9.78,6.41 -18.73,12.61 -28.31,19.19c-28.9,19.84 -66.33,46.7 -99.49,78.53c-16.72,16.04 -55.88,53.61 -54.89,86.69c0.34,11.43 5.29,21.3 14.71,29.32c14.95,12.72 37.2,16.3 54.92,17.99c10.33,0.98 20.92,1.48 32.15,1.48c18.35,0 38.41,-1.33 61.87,-4.03c36.4,-4.19 72.42,-10.52 106.94,-17.91c2.67,-0.57 5.34,-1.15 8,-1.73c52.93,-11.66 102.1,-25.66 143.42,-38.1c20.73,-6.23 41.5,-12.73 62.34,-19.5c17.3,-5.63 34.66,-11.44 52.1,-17.45c69.12,-23.84 139.49,-50.82 212.73,-81.52c24.21,-10.14 48.13,-20.46 71.73,-30.94c12.76,-5.66 25.42,-11.36 37.98,-17.11c68.8,-31.48 134.67,-64.25 196.81,-97.93c29.95,-16.23 57.36,-31.68 82.77,-46.7c12.06,-7.13 23.67,-14.15 34.89,-21.12l1.27,-0.79c6.71,-4.17 13.28,-8.32 19.72,-12.46l0.01,0l0,0l0,-0.01c30.54,-19.61 58.21,-38.91 84.36,-58.73c29.5,-22.37 50.75,-40.83 68.9,-59.85c15.66,-16.41 30.36,-32.82 38.26,-53.18c7.05,-18.15 5.63,-33.72 -4.08,-45.04c-15.58,-18.16 -41.58,-22.46 -64.95,-24.28c-42.95,-3.35 -85.19,1.75 -117.18,6.56c-27.74,4.17 -62.47,9.32 -97.99,17.3l2.8,4.08l0.12,0.17l0.4,0.58l13.65,19.88l0.37,0.53l0.13,0.19l1.58,2.31c11.58,-2.46 18.44,-3.93 29.29,-5.92c5.04,-0.92 10.08,-1.8 15.13,-2.65c2.76,-0.46 5.52,-0.91 8.29,-1.35l1.64,-0.25c10.24,-1.5 19.72,-2.71 28.99,-3.69c4.51,-0.48 9.02,-0.92 13.54,-1.29c1.86,-0.16 3.72,-0.3 5.57,-0.44c0.83,0 1.74,-0.07 2.75,-0.16c6.47,-0.3 14.7,-0.61 23.04,-0.53c3.34,0.03 6.69,0.12 10.04,0.27l2.5,0.13l1.16,-0.02l0.16,0.03c0.77,0.14 1.48,0.26 2.05,0.31c6.36,0.63 11.99,1.48 17.22,2.61c1.14,0.24 2.26,0.54 3.38,0.84c0.54,0.15 1.08,0.29 1.63,0.43l0.23,0.07l-0.01,0.02l0.34,0.07l0.93,0.22l0.48,0.14c1.24,0.42 2.47,0.87 3.68,1.36c3.99,1.62 7.32,3.4 10.16,5.44c1.1,0.79 2.26,1.76 3.65,3.02l0.2,0.2l0.05,0.07c0.42,0.52 0.84,1.03 1.22,1.59c2.69,3.92 4.06,8.71 3.97,13.87c-0.02,1.23 -0.13,2.46 -0.29,3.68l-0.23,1.44l-0.1,0.53l0,0.01l-0.04,0.15c-1.19,3.96 -2.25,6.9 -3.44,9.55c-3.07,6.8 -7.29,13.67 -13.28,21.65c-3.03,4.03 -6.35,8.1 -10.16,12.43c-1.23,1.42 -2.51,2.81 -3.77,4.2l-2.71,2.9c-1.12,1.16 -2.25,2.32 -3.38,3.46c-8.77,8.85 -18.56,17.85 -29.95,27.53c-17.57,14.94 -36.79,29.76 -59.32,45.73l0,0l0,0l-0.02,0.01c-7.24,5.13 -14.82,10.37 -22.8,15.78l-8.01,5.38c-1.61,1.06 -3.22,2.12 -4.83,3.18c-2.8,1.83 -5.59,3.66 -8.4,5.47c-8.43,5.46 -17.22,11.03 -26.14,16.57c-17.89,11.13 -36.92,22.52 -56.57,33.88c-11.51,6.65 -23.16,13.25 -34.99,19.83c-25.16,13.99 -51.18,27.88 -78.57,41.97c-4.98,2.56 -10.01,5.13 -15.08,7.7c-5.79,2.94 -11.58,5.85 -17.39,8.75l-3.72,1.86l-0.18,0.09l-9.41,4.64c-12.16,5.97 -24.68,12.02 -37.19,17.97c-4.19,1.99 -8.4,3.98 -12.63,5.97c-9.95,4.69 -20,9.36 -30.11,14.01c-10.74,4.93 -21.55,9.83 -32.36,14.66z" fill="#F5E3BA"/>
   <path d="m1280.11,1434.21c0.55,-0.14 0.74,-0.85 0.34,-1.26l-19.57,-19.65c-9.89,-9.92 -20.28,-20.17 -33.52,-24.64c-18.73,-6.33 -39.34,0.18 -57.01,9.07c-17.68,8.9 -34.49,20.34 -53.78,24.66c-27.22,6.1 -56.3,-3.17 -78.6,-20.02c-22.31,-16.86 -38.58,-40.6 -51.56,-65.45c-5.93,-11.36 -12.05,-23.74 -20.07,-33.63c-35.92,11.81 -71.55,22.88 -107.02,33.26c46.02,40.42 99.12,72.64 156.9,91.2c84.93,27.28 177.7,29.38 263.89,6.46z" fill="#FFFFFF"/>
   <path d="m718.11,954.65c5.8,22.98 18.26,41.71 37.11,52.59c48.4,27.94 120.58,-6.46 161.22,-76.84c7.22,-12.49 12.95,-25.28 17.23,-38.03c12.51,-37.22 12.63,-74.04 1.02,-101.92c-6.8,-16.33 -17.62,-29.6 -32.32,-38.09c-48.41,-27.95 -120.59,6.45 -161.22,76.84c-15.88,27.49 -24.59,56.41 -26.42,83.11c-1.04,15.03 0.11,29.37 3.38,42.34z" fill="#FFFEFE"/>
   <path d="m1649.96,835.02c7.98,-5.41 15.56,-10.65 22.8,-15.78c-7.75,-29.81 -18.11,-58.56 -30.83,-86.01c2.42,30.36 1.94,60.8 -2,91.26c-0.82,6.37 -1.76,12.74 -2.81,19.09c1.61,-1.06 3.22,-2.12 4.83,-3.18l8.01,-5.38z" fill="#BF8BBD"/>
   <path d="m1660.56,933.26c9.31,-5.42 18.55,-10.86 27.72,-16.34l-0.07,-1.26c-0.05,-0.75 -0.1,-1.5 -0.15,-2.25l-0.02,-0.22l-0.08,-1.16l0,-0.08c-0.06,-0.85 -0.12,-1.7 -0.19,-2.54l-0.02,-0.25c-0.12,-1.59 -0.25,-3.18 -0.38,-4.77l-0.02,-0.24l-0.01,-0.12l-0.02,-0.13l-0.03,-0.38l-0.01,-0.07c-0.13,-1.54 -0.27,-3.08 -0.42,-4.62l0,-0.05c-0.11,-1.14 -0.23,-2.27 -0.34,-3.4l-0.02,-0.19c-1.2,-11.49 -2.77,-22.87 -4.71,-34.12c-6.44,4.14 -13.01,8.29 -19.72,12.46l-1.27,0.79c-11.21,6.97 -22.83,13.99 -34.89,21.12c-5.19,19.35 -11.46,38.4 -18.82,57c-1.93,4.87 -3.94,9.73 -6.05,14.57c16.43,-9.08 32.64,-18.23 48.64,-27.45c3.64,-2.1 7.26,-4.2 10.88,-6.3z" fill="#BF8BBD"/>
   <path d="m1057.77,1213.08c85.23,-31.26 171.52,-66.34 258,-104.91c7.89,-3.52 15.79,-7.06 23.68,-10.64c11.54,-5.23 22.97,-10.47 34.28,-15.71c-1.22,-1.1 -2.42,-2.24 -3.58,-3.43c-10.66,-10.87 -18.25,-24.21 -23.82,-38.32c-12.56,5.75 -25.22,11.45 -37.97,17.11c-23.61,10.48 -47.53,20.79 -71.73,30.94c-73.25,30.7 -143.62,57.68 -212.74,81.52c-17.44,6.01 -34.8,11.82 -52.1,17.45c-20.84,6.77 -41.61,13.27 -62.34,19.5c-41.32,12.44 -90.49,26.44 -143.42,38.1c21.28,14.3 44.75,28.29 69.67,34.37c5.29,1.29 10.72,2.18 16.19,2.58c19.61,-5.81 39.38,-11.89 59.24,-18.24c31.64,-10.09 63.49,-20.77 95.53,-31.99c16.99,-5.96 34.03,-12.06 51.11,-18.33z" fill="#BF8BBD"/>
   <path d="m1346.33,1040.07c5.57,14.11 13.16,27.45 23.82,38.32c1.17,1.19 2.36,2.33 3.59,3.43c81,-37.56 156.27,-75.57 227.3,-114.81c2.1,-4.84 4.12,-9.7 6.05,-14.57c7.36,-18.6 13.63,-37.65 18.82,-57c-25.41,15.01 -52.82,30.47 -82.77,46.7c-62.13,33.68 -128.01,66.45 -196.81,97.93z" fill="#F5B4C8"/>
   <path d="m1662.07,873.53l-1.27,0.79c-2.27,18.97 -5.42,37.83 -9.26,56.46c-0.6,2.93 -1.22,5.85 -1.86,8.78c3.64,-2.1 7.26,-4.2 10.88,-6.3c0.15,-6.26 0.23,-12.53 0.34,-18.82c0.23,-13.58 0.82,-27.24 1.17,-40.91z" fill="#A568A8"/>
   <path d="m1306.74,1022.29c-0.51,-15.45 -0.95,-30.9 -2.18,-46.31c-1.1,-13.79 -2.41,-28.31 -6.98,-41.47c-0.4,-1.17 -0.84,-2.33 -1.34,-3.47l-1.03,-1.99c-0.49,-0.86 -1.03,-1.69 -1.56,-2.52l-0.81,-1.12l-0.12,-0.11c-0.64,-0.67 -1.33,-1.27 -2,-1.91l-0.28,-0.28l-0.37,-0.16l-1.3,-0.65l-1.41,-0.49l-1.32,-0.24c-0.66,0 -1.31,0.03 -1.97,0.03l-1.31,0.12l-0.01,0c-0.7,0.15 -1.4,0.31 -2.09,0.5c-1.04,0.3 -2.06,0.67 -3.08,1.03l-1.2,0.49l-0.13,0.06c-1.83,0.88 -3.61,1.87 -5.34,2.93c-8.97,5.5 -15.32,11.48 -22.98,19.3c-16.55,16.88 -31.78,36.9 -44.94,55.5c-10.28,14.54 -19.61,29.74 -29.97,44.21c-15.35,21.47 -34.27,41.05 -55.52,57.06c53.59,-21.1 106.35,-43.25 156.88,-65.85c10.81,-4.83 21.62,-9.73 32.36,-14.66z" fill="#A568A8"/>
   <path d="m1105.57,1283.23c4.17,1.79 8.72,1.76 12.99,0.4c0.85,-0.27 1.69,-0.59 2.51,-0.92l0.36,-0.14l0.61,-0.33c1.58,-0.84 3.11,-1.73 4.6,-2.72c3.71,-2.49 4.73,-3.44 7.97,-6.6c3.22,-3.12 6.2,-6.47 9.06,-9.92c7.99,-9.65 14.99,-19.99 21.96,-30.42c-26.46,10.32 -52.66,20.23 -78.65,29.75c4.51,8.4 10.07,17.25 18.59,20.9z" fill="#A568A8"/>
   <path d="m1308.36,1057.18c-23.61,10.48 -47.53,20.79 -71.73,30.94c-73.25,30.7 -143.62,57.68 -212.74,81.52c12.74,13.07 23.67,28.15 33.68,43.14l0.2,0.3c85.23,-31.26 171.52,-66.34 258,-104.91c-2.57,-10.39 -4.35,-21.02 -5.62,-31.67c-0.76,-6.43 -1.34,-12.87 -1.79,-19.32z" fill="#A568A8"/>
   <path d="m853.15,636.38c9.54,4.47 20.51,-1.7 28.78,-8.23c16.02,-12.65 30.51,-27.86 46.17,-41.34c11.2,-9.65 23,-18.42 36.38,-24.76c11.57,-5.47 27.79,-9.91 40.03,-3.65c12.01,6.14 19.03,21.89 22.38,34.15c7.06,25.8 7.01,53.05 6.29,79.56c-0.29,10.71 1.27,24.3 11.5,27.49c8.68,2.7 17.1,-4.49 23.1,-11.33c20.82,-23.74 36.28,-51.67 55.22,-77.07c13.17,-17.66 27.06,-34.78 41.61,-51.32c13.64,-15.5 30.43,-27.64 43.52,-43.36c18.92,-22.75 15.69,-50.22 -13.09,-61.81c-39.57,-15.94 -88.55,-6.34 -128.6,4.34c-58.38,15.56 -118.97,38.28 -167.17,75.44c-22.97,17.71 -43.85,39.73 -53.49,67.09c-2.17,6.15 -3.76,12.69 -2.94,19.16c0.81,6.47 4.41,12.88 10.31,15.64z" fill="#FFFFFF"/>
   <path d="m1268.94,521.65c8.42,2.66 17.76,3.82 26.44,5.21c46.02,7.39 91.22,32.6 112.66,73.99c20.95,40.43 16.82,89.69 34.45,131.67c4.41,10.5 11.69,21.55 22.96,23.21c12.97,1.9 24.09,-9.77 29.32,-21.79c7.53,-17.3 8.07,-36.86 6.23,-55.64c-4.91,-50.27 -26.39,-98.65 -59.7,-136.62c-33.31,-37.98 -78.21,-65.47 -126.94,-78.77c-15.27,-4.17 -33.57,-6.41 -48.86,0.05c-18.07,7.63 -29.55,27.9 -16.73,45.46c4.95,6.79 12.14,10.69 20.17,13.23z" fill="#FFFFFF"/>
   <path d="m807.35,1280.78c3.15,3.7 6.36,7.36 9.61,10.98c2.51,-0.71 5.02,-1.42 7.53,-2.14c-5.7,-2.72 -11.11,-6.04 -16.1,-9.91c-0.72,-0.55 -1.63,0.38 -1.04,1.07z" fill="#FFFFFF"/>
   <path d="m907.46,742.99c20.43,11.8 50.9,-2.73 68.06,-32.44c17.15,-29.71 14.49,-63.36 -5.94,-75.16c-20.44,-11.8 -50.91,2.72 -68.07,32.44c-17.15,29.71 -14.49,63.36 5.95,75.16z" fill="#FFFEFE"/>
   <path d="m822.8,576.45c-40.55,38.5 -74.48,83.24 -101.06,133.44c3.59,8.49 9.25,16.1 17.57,21.49c14.42,9.35 29.21,8.26 43.98,0.85c15.99,-8.02 29.88,-20.49 43.01,-32.44c4.44,-4.04 8.82,-8.14 13.16,-12.28c-16.33,-34.54 -20.83,-73.24 -16.66,-111.06z" fill="#F190B7"/>
  </symbol>
 </defs>
 <g class="layer">
  <title>Layer 1</title>
  <g filter="url(#pia)" id="svg_2" transform="matrix(1 0 0 1 0 0) translate(96 501) matrix(0.752613 0 0 0.813278 -72.2509 -407.452)">
   <path clip-rule="evenodd" d="m96,19l574,386.9l-326.18,95.1l-247.82,-482z" fill="#e4c5ea" fill-rule="evenodd" id="svg_3"/>
  </g>
  <g filter="url(#pic)" id="svg_4" transform="translate(3 -31) matrix(0.989574 -0.154812 0.15267 0.975882 -76.0177 51.4415)">
   <path clip-rule="evenodd" d="m176,-42l574,386.9l-326.18,95.1l-247.82,-482z" fill="#c79ad1" fill-rule="evenodd" id="svg_5"/>
  </g>
  <use id="svg_19" opacity="0.8" transform="matrix(0.50821 0 0 0.492509 475.594 100.428)" xlink:href="#svg_18"/>
  <g id="svg_6" mask="url(#pif)" opacity="0.5" transform="rotate(-6.35922 387.185 43.45) matrix(1 0 0 1 4 23)">
   <path clip-rule="evenodd" d="m575.65,131.95c-127.7,107.49 -298.92,166.57 -482.49,166.57c-1.24,0 -2.49,-0.01 -3.73,-0.01c-80.45,-0.35 -158.46,-12.03 -231.43,-34.09l0,6.16c73.03,21.88 151.01,33.49 231.4,33.84l1.08,0l0.35,0l0.59,0l1.74,0c185.06,0 357.76,-59.61 486.58,-168.04c143.52,-120.79 221.2,-292.98 225.48,-498.38l-6.19,0c-4.27,203.66 -81.23,374.31 -223.38,493.95zm-482.66,-168.27c-1.17,0 -2.37,0 -3.54,-0.01c-87.42,-0.75 -169,-28.05 -231.45,-77.11l0,7.57c63.01,48.01 144.37,74.7 231.39,75.45c1.26,0.01 2.51,0.01 3.77,0.01c93.34,0 180.48,-29.94 245.74,-84.53c71.69,-59.96 111.42,-145.2 115.6,-247.06l-6.22,0c-9.17,224.05 -188.28,325.68 -355.29,325.68zm0,19.7c-1.17,0 -2.36,-0.01 -3.53,-0.01c-86.33,-0.71 -167.3,-25.88 -231.46,-71.41l0,7.3c64.62,44.65 145.4,69.32 231.41,70.01c1.25,0.01 2.49,0.02 3.75,0.02c98.74,0 190.92,-31.7 259.92,-89.46c75.9,-63.53 117.87,-153.89 122.05,-261.83l-6.21,0c-9.2,237.57 -199,345.38 -375.93,345.38zm-3.52,19.68c1.17,0.01 2.35,0.01 3.52,0.01c186.86,0 387.34,-113.97 396.56,-365.07l6.21,0c-4.19,114.03 -48.38,209.5 -128.5,276.61c-72.74,60.93 -169.97,94.37 -274.1,94.37c-1.25,0 -2.49,0 -3.74,-0.01c-85.16,-0.65 -165.51,-23.57 -231.42,-65.33l0,-7.2c65.55,42.54 146.01,65.97 231.47,66.62zm3.52,19.71c-1.17,0 -2.35,-0.01 -3.51,-0.02c-84.74,-0.61 -164.79,-22.54 -231.48,-62.5l0,6.98c66.99,39.29 146.93,60.82 231.43,61.43c1.25,0.01 2.48,0.02 3.73,0.02c109.54,0 211.79,-35.19 288.27,-99.29c84.34,-70.69 130.76,-171.27 134.97,-291.39l-6.22,0c-9.23,264.63 -220.4,384.77 -417.19,384.77zm-3.5,19.68c1.15,0.01 2.35,0.01 3.51,0.01c206.71,0 428.56,-126.3 437.81,-404.46l6.22,0c-4.22,126.21 -52.86,231.9 -141.42,306.17c-80.23,67.27 -187.51,104.2 -302.45,104.2c-1.25,0 -2.47,0 -3.72,-0.01c-83.92,-0.58 -163.55,-20.85 -231.44,-57.97l0,-6.78c67.63,37.69 147.37,58.26 231.49,58.84zm316.2,-87.94c-83.68,70.2 -196.12,108.34 -316.2,107.64c-83.59,-0.55 -163.05,-19.96 -231.49,-55.65l0,6.79c68.64,35.16 148.05,54.22 231.44,54.77c1.25,0.01 2.47,0.01 3.72,0.01c120.33,0 232.65,-38.68 316.62,-109.12c92.78,-77.85 143.66,-188.65 147.88,-320.95l-6.19,0c-4.21,130.54 -54.36,239.81 -145.78,316.51zm-316.2,127.33c125.48,0.7 242.95,-39.18 330.37,-112.55c95.64,-80.28 148.02,-194.66 152.24,-331.29l6.19,0c-4.23,138.38 -57.33,254.3 -154.35,335.73c-87.69,73.61 -205.06,114.04 -330.79,114.04c-1.24,0 -2.46,-0.01 -3.7,-0.01c-82.98,-0.53 -162.14,-18.7 -231.45,-52.14l0,-6.62c69.12,33.9 148.35,52.32 231.49,52.85l0,-0.01zm344.54,-97.77c-91.16,76.55 -213.59,118.26 -344.54,117.47c-82.73,-0.5 -161.77,-17.96 -231.49,-50.24l0,6.62c69.87,31.87 148.87,49.03 231.45,49.54l0.07,0c1.22,0 2.42,0.01 3.63,0.01c131.14,0 253.52,-42.18 344.96,-118.95c101.24,-85.01 156.58,-206.04 160.81,-350.52l-6.19,0c-4.22,142.72 -58.84,262.22 -158.7,346.07zm-340.88,137.18c135.04,0 260.99,-43.39 355.04,-122.39c104.1,-87.44 160.94,-212.05 165.17,-360.86l6.19,0c-4.24,150.56 -61.81,276.71 -167.27,365.3c-95.18,79.94 -222.59,123.86 -359.12,123.86c-1.21,0 -2.4,0 -3.61,-0.01l-0.09,0c-82.28,-0.48 -161.07,-16.96 -231.46,-47.43l0,-6.47c70.24,30.84 149.1,47.51 231.49,47.99c1.21,0.01 2.45,0.01 3.66,0.01zm369.21,-107.61c-98.63,82.88 -231.15,128.1 -372.87,127.3c-82.08,-0.46 -160.79,-16.39 -231.49,-45.91l0,6.47c70.82,29.18 149.49,44.89 231.46,45.35c1.24,0 2.46,0.01 3.7,0.01c141.92,0 274.38,-45.67 373.29,-128.78c109.68,-92.16 169.49,-223.42 173.73,-380.08l-6.19,0c-4.23,154.9 -63.31,284.63 -171.63,375.64zm-369.21,147c145.82,0 281.85,-46.88 383.38,-132.21c112.54,-94.59 173.85,-229.43 178.09,-390.43l6.2,0c-4.26,162.75 -66.29,299.12 -180.21,394.86c-102.65,86.28 -240.14,133.69 -387.46,133.69c-1.22,0 -2.42,0 -3.64,-0.01l-0.06,0c-81.7,-0.44 -160.24,-15.48 -231.45,-43.48l0,-6.35c71.09,28.31 149.7,43.48 231.49,43.92c1.22,0.01 2.45,0.01 3.67,0.01l-0.01,0zm397.54,-117.43c-105.27,88.5 -246.31,137.13 -397.53,137.13c-1.22,0 -2.45,-0.01 -3.67,-0.01c-81.56,-0.42 -160.02,-15.08 -231.49,-42.29l0,6.35c71.56,26.93 149.98,41.42 231.45,41.85l0.1,0c1.21,0 2.4,0.01 3.6,0.01c152.72,0 295.23,-49.16 401.63,-138.6c118.13,-99.32 182.4,-240.81 186.66,-409.65l-6.19,0c-4.24,167.09 -67.79,307.04 -184.56,405.21zm-397.54,156.82c156.62,0 302.69,-50.37 411.7,-142.03c121,-101.75 186.78,-246.82 191.03,-420l6.2,0c-4.26,174.93 -70.77,321.54 -193.13,424.44c-110.14,92.6 -257.69,143.5 -415.79,143.5c-1.25,0 -2.47,0 -3.71,0c-81.25,-0.41 -159.58,-14.3 -231.45,-40.22l0,-6.35c71.78,26.19 150.15,40.24 231.48,40.66c1.22,0 2.45,0 3.68,0l-0.01,0zm425.87,-127.24c-112.75,94.83 -263.86,146.94 -425.86,146.94c-1.23,0 -2.46,0 -3.69,-0.01c-81.11,-0.39 -159.41,-13.83 -231.47,-39.05l0,6.24c72.14,24.99 150.4,38.33 231.44,38.72c1.25,0.01 2.47,0.01 3.72,0.01c163.5,0 316.08,-52.64 429.95,-148.42c126.59,-106.47 195.32,-258.19 199.59,-439.22l-6.19,0c-4.26,179.27 -72.27,329.46 -197.49,434.79zm-429.56,166.63c168.72,0.8 326.37,-53.13 443.71,-151.84c129.46,-108.91 199.71,-264.21 203.97,-449.58l6.2,0c-4.28,187.12 -75.25,343.95 -206.07,454.01c-117.62,98.94 -275.22,153.33 -444.12,153.33c-1.24,0 -2.47,-0.01 -3.72,-0.01c-80.87,-0.39 -159.02,-13.33 -231.43,-37.47l0,-6.24c72.33,24.36 150.52,37.42 231.46,37.8zm457.88,-137.05c-120.23,101.16 -281.39,156.75 -454.18,156.75l-1.94,0l-0.92,0l-0.78,0l-0.06,0c-80.78,-0.38 -158.88,-13.01 -231.46,-36.56l0,6.24c72.64,23.34 150.72,35.85 231.42,36.22c1.26,0.01 2.48,0.01 3.74,0.01c174.28,0 336.92,-56.12 458.26,-158.23c135.06,-113.63 208.27,-275.58 212.54,-468.8l-6.19,0c-4.26,191.46 -76.75,351.88 -210.43,464.37zm-457.9,176.44c179.49,0.71 347.22,-56.61 472.05,-161.65c137.92,-116.07 212.64,-281.6 216.91,-479.16l6.19,0c-4.27,199.31 -79.72,366.38 -219.01,483.59c-125.08,105.27 -292.75,163.14 -472.43,163.14c-1.26,0 -2.48,0 -3.74,-0.01c-80.54,-0.36 -158.57,-12.39 -231.41,-34.97l0,-6.25c72.78,22.79 150.83,34.95 231.44,35.31zm3.72,39.4c188.97,0 365.2,-60.82 496.65,-171.47c146.38,-123.22 225.57,-298.99 229.85,-508.74l6.19,0c-4.28,211.5 -84.2,388.81 -231.95,513.17c-132.57,111.6 -310.28,172.95 -500.74,172.95c-1.26,0 -2.51,0 -3.78,-0.01c-80.27,-0.34 -158.17,-11.68 -231.38,-32.91l0,-6.15c73.16,21.4 151.09,32.81 231.41,33.16c1.25,0 2.51,0 3.75,0zm510.8,-156.67c-135.18,113.81 -316.45,176.37 -510.8,176.37c-1.25,0 -2.51,-0.01 -3.77,-0.01c-80.2,-0.33 -158.06,-11.46 -231.39,-32.23l0,6.15c73.38,20.62 151.21,31.66 231.37,31.99c1.26,0.01 2.53,0.01 3.79,0.01c195.86,0 378.58,-63.09 514.9,-177.85c151.97,-127.95 234.13,-310.37 238.42,-527.97l-6.19,0c-4.28,215.85 -85.72,396.73 -236.33,523.54zm-510.8,196.07c199.75,0 386.03,-64.3 524.96,-181.28c154.84,-130.38 238.51,-316.38 242.8,-538.33l6.19,0c-4.29,223.7 -88.69,411.23 -244.9,542.77c-140.05,117.92 -327.81,182.74 -529.05,182.74c-1.27,0 -2.54,0 -3.81,0c-80.04,-0.33 -157.83,-11.04 -231.35,-31.07l0,-6.16c73.48,20.19 151.29,30.99 231.38,31.32c1.25,0 2.53,0 3.78,0l0,0.01zm539.11,-166.48c-142.66,120.13 -333.97,186.17 -539.11,186.17c-1.26,0 -2.55,0 -3.81,-0.01c-79.96,-0.31 -157.73,-10.77 -231.35,-30.38l0,6.15c73.65,19.48 151.41,29.83 231.33,30.14c1.28,0.01 2.55,0.01 3.83,0.01c206.63,0 399.42,-66.57 543.2,-187.65c160.45,-135.11 247.09,-327.76 251.38,-557.56l-6.19,0c-4.28,228.05 -90.2,419.17 -249.28,553.13zm-539.11,205.86c210.53,0 406.86,-67.77 553.26,-191.07c163.32,-137.54 251.47,-333.77 255.76,-567.92l6.19,0c-4.29,235.89 -93.17,433.67 -257.86,572.35c-147.52,124.24 -345.33,192.55 -557.35,192.55c-1.29,0 -2.56,0 -3.85,0c-79.8,-0.31 -157.55,-10.28 -231.31,-29.22l0,-6.16c73.73,19.08 151.49,29.16 231.33,29.47c1.27,0 2.56,0 3.83,0z" fill="#f7bdb9" fill-opacity="0.64" fill-rule="evenodd" id="svg_7"/>
  </g>
 </g>
</svg>